<svg version="1.1" xmlns="http://www.w3.org/2000/svg" height="64" width="64" viewBox="0 0 1024 1024" style="width: 64px; height: 64px;"><path d="M512 820.59c80.54 0 145.83 18.66 145.83 41.67S592.54 903.93 512 903.93s-145.83-18.66-145.83-41.67 65.29-41.67 145.83-41.67z" fill="#999999"></path><path d="M512 120.07c-138.07 0-250 111.93-250 250a249.6 249.6 0 0 0 98.93 199.2C408.85 615.49 512 731.4 512 872.68c0-141.28 103.15-257.19 151.07-303.41A249.6 249.6 0 0 0 762 370.07c0-138.07-111.93-250-250-250z m0 350.26a100.26 100.26 0 1 1 100.26-100.26A100.26 100.26 0 0 1 512 470.33z" fill="#2FC1F6"></path></svg>